# xmcd
#
# Track frame offsets: 
#        150
#        5962
#        24955
#        26721
#        40694
#        55480
#        75237
#        93880
#        112279
#        128449
#        146173
#        165385
#        167037
#        189323
#        205360
#        208744
#        226069
#        247260
#        261000
#
# Disc length: 3718 seconds
#
# Revision: 0
# Processed by: cddbd v1.5.2PL0 Copyright (c) Steve Scherf et al.
# Submitted via: ExactAudioCopy v0.99pb4
#
DISCID=000e8413
DTITLE=Ashanti - Concrete Rose
DYEAR=2004
DGENRE=R&B
TTITLE0=Concrete Rose Intro
TTITLE1=Still Down feat. T.I.
TTITLE2=Message To The Fans (Skit)
TTITLE3=Only U
TTITLE4=Focus
TTITLE5=Don't Let Them
TTITLE6=Love Again
TTITLE7=Take Me Tonight feat. Lloyd
TTITLE8=U
TTITLE9=Every Lil'thing
TTITLE10=Turn It Up feat. Ja Rule
TTITLE11=Buck 3000 (Skit)
TTITLE12=So Hot
TTITLE13=Don't Leave Me Alone feat. 7 Aurelius
TTITLE14=Sister Stories feat. Shi Shi (Skit)
TTITLE15=Freedom
TTITLE16=Wonderful Remix feat. Ja Rule
TTITLE17=Touch My Body (Int'l Bonus Track)
TTITLE18=Spend The Night (Japan Bonus Track)
EXTD=
EXTT0=
EXTT1=
EXTT2=
EXTT3=
EXTT4=
EXTT5=
EXTT6=
EXTT7=
EXTT8=
EXTT9=
EXTT10=
EXTT11=
EXTT12=
EXTT13=
EXTT14=
EXTT15=
EXTT16=
EXTT17=
EXTT18=
PLAYORDER=
